<svg height='100px' width='100px'  fill="#000000" xmlns="http://www.w3.org/2000/svg" xmlns:xlink="http://www.w3.org/1999/xlink" version="1.1" x="0px" y="0px" viewBox="0 0 100 100" enable-background="new 0 0 100 100" xml:space="preserve"><g><path d="M91.333,24.698c0,3.325-2.695,6.021-6.021,6.021H14.688c-3.325,0-6.021-2.695-6.021-6.021l0,0   c0-3.325,2.695-6.021,6.021-6.021h70.625C88.638,18.677,91.333,21.373,91.333,24.698L91.333,24.698z"></path><path d="M71.333,50c0,3.325-2.695,6.021-6.021,6.021H14.688c-3.325,0-6.021-2.695-6.021-6.021l0,0c0-3.325,2.695-6.021,6.021-6.021   h50.625C68.638,43.979,71.333,46.675,71.333,50L71.333,50z"></path><path d="M41.333,75.303c0,3.325-2.695,6.021-6.021,6.021H14.688c-3.325,0-6.021-2.695-6.021-6.021l0,0   c0-3.325,2.695-6.021,6.021-6.021h20.625C38.638,69.282,41.333,71.978,41.333,75.303L41.333,75.303z"></path></g></svg>